<?xml version="1.0" encoding="UTF-8" standalone="no"?>
<!-- Created with Inkscape (http://www.inkscape.org/) -->

<svg
   version="1.1"
   id="svg2"
   width="666.66669"
   height="666.66669"
   viewBox="0 0 666.66669 666.66669"
   sodipodi:docname="7617546.eps"
   xmlns:inkscape="http://www.inkscape.org/namespaces/inkscape"
   xmlns:sodipodi="http://sodipodi.sourceforge.net/DTD/sodipodi-0.dtd"
   xmlns="http://www.w3.org/2000/svg"
   xmlns:svg="http://www.w3.org/2000/svg">
  <defs
     id="defs6" />
  <sodipodi:namedview
     id="namedview4"
     pagecolor="#ffffff"
     bordercolor="#000000"
     borderopacity="0.25"
     inkscape:showpageshadow="2"
     inkscape:pageopacity="0.0"
     inkscape:pagecheckerboard="0"
     inkscape:deskcolor="#d1d1d1" />
  <g
     id="g8"
     inkscape:groupmode="layer"
     inkscape:label="ink_ext_XXXXXX"
     transform="matrix(1.3333333,0,0,-1.3333333,0,666.66667)">
    <g
       id="g10"
       transform="scale(0.1)">
      <path
         d="M 5000,0 H 0 V 5000 H 5000 V 0"
         style="fill:#ffffff;fill-opacity:1;fill-rule:nonzero;stroke:none"
         id="path12" />
      <path
         d="m 118.094,3184.75 c 18.765,10.26 37.73,20.13 56.886,29.61 l -56.886,-29.61"
         style="fill:#ccc7e9;fill-opacity:1;fill-rule:nonzero;stroke:none"
         id="path14" />
      <path
         d="m 4709.74,765.152 c 0,-110.64 -958.49,-200.343 -2140.84,-200.343 -1182.36,0 -2140.845,89.703 -2140.845,200.343 0,110.637 958.485,200.328 2140.845,200.328 1182.35,0 2140.84,-89.691 2140.84,-200.328"
         style="fill:#ddf2d1;fill-opacity:1;fill-rule:nonzero;stroke:none"
         id="path16" />
      <path
         d="m 4584.09,2048.65 c -32.77,-198.2 -86.36,-407.1 -234.9,-542.22 -128.61,-117.06 -307,-158.99 -477.73,-191.75 -760.02,-145.96 -1535.14,-194.59 -2308.32,-227.09 -167.18,-7.03 -345.06,-10.71 -488.69,75.07 -127.126,75.98 -206.716,210.45 -271.274,343.7 -89.266,184.27 -159.824,377.5 -211.035,575.83 -21.993,84.81 -40.375,170.66 -55.207,257.08 -24.317,141.89 -38.891,285.53 -43.602,429.48 -5.223,160.02 1.742,320.42 21.352,479.34 1.546,12.71 3.16,25.41 4.902,38.12 30.504,224.51 91,456.05 244.695,622.52 147.766,159.95 362.409,239.02 572.799,295.26 296.36,79.21 593.75,108.68 895.66,132.74 65.85,5.22 131.96,10.25 198.26,15.41 350.28,27.41 696.76,89.91 1048.65,43.47 7.87,-1.03 15.74,-2.13 23.6,-3.29 h 0.07 c 327.13,-47.86 652.32,-192.52 856.9,-448.05 17.03,-21.29 33.28,-43.41 48.56,-66.24 114.49,-171.05 170.66,-372.28 200.14,-577.5 9.48,-65.79 16.19,-131.96 21.22,-197.69 26.89,-351.57 11.41,-706.36 -46.05,-1054.19"
         style="fill:#d1edbe;fill-opacity:1;fill-rule:nonzero;stroke:none"
         id="path18" />
      <path
         d="m 3503.25,4392.32 c -139.82,-66.75 -273.07,-149.44 -397.49,-240.63 -306.48,-224.52 -570.4,-500.88 -853.61,-754.03 -283.2,-253.22 -594.33,-487.98 -955.58,-605.56 -257.92,-83.97 -546.218,-100.36 -803.238,-23.35 -5.223,160.02 1.742,320.42 21.352,479.34 140.859,-8.45 280.234,-46.76 421.226,-39.47 281.72,14.57 523.13,207.87 704.75,423.74 181.69,215.87 326.87,463.93 534.74,654.64 18.64,17.16 37.8,33.73 57.34,49.73 65.85,5.22 131.96,10.25 198.26,15.41 350.28,27.41 696.76,89.91 1048.65,43.47 7.87,-1.03 15.74,-2.13 23.6,-3.29"
         style="fill:#f1f9e7;fill-opacity:1;fill-rule:nonzero;stroke:none"
         id="path20" />
      <path
         d="m 4608.92,3300.53 c -16.77,-47.93 -36.06,-94.81 -57.66,-140.41 -176.66,-372.6 -489.85,-665.22 -832.39,-894.83 -333,-223.09 -711.34,-398.07 -1111.6,-417.93 -435.48,-21.61 -856.77,140.15 -1287.41,208.51 -240.38,38.12 -485.274,46.7 -727.719,26.32 -21.993,84.81 -40.375,170.66 -55.207,257.08 136.152,35.54 281.914,45.54 421.871,37.99 299.065,-16.13 591.435,-98.87 890.435,-116.74 606.2,-36.18 1211.44,203.55 1676.14,594.53 352.73,296.81 628.64,675.47 834.84,1089.22 17.03,-21.29 33.28,-43.41 48.56,-66.24 114.49,-171.05 170.66,-372.28 200.14,-577.5"
         style="fill:#f1f9e7;fill-opacity:1;fill-rule:nonzero;stroke:none"
         id="path22" />
      <path
         d="m 3914.48,3796.64 c 0,-152.06 -123.26,-275.32 -275.32,-275.32 -152.05,0 -275.32,123.26 -275.32,275.32 0,152.05 123.27,275.32 275.32,275.32 152.06,0 275.32,-123.27 275.32,-275.32"
         style="fill:#f1f9e7;fill-opacity:1;fill-rule:nonzero;stroke:none"
         id="path24" />
      <path
         d="m 1468.07,1677.05 c 0,-112.21 -90.96,-203.17 -203.17,-203.17 -112.21,0 -203.17,90.96 -203.17,203.17 0,112.21 90.96,203.17 203.17,203.17 112.21,0 203.17,-90.96 203.17,-203.17"
         style="fill:#f1f9e7;fill-opacity:1;fill-rule:nonzero;stroke:none"
         id="path26" />
      <path
         d="m 3240.51,3746.72 c 0,-68.56 -55.58,-124.14 -124.14,-124.14 -68.57,0 -124.15,55.58 -124.15,124.14 0,68.57 55.58,124.15 124.15,124.15 68.56,0 124.14,-55.58 124.14,-124.15"
         style="fill:#f1f9e7;fill-opacity:1;fill-rule:nonzero;stroke:none"
         id="path28" />
      <path
         d="m 1640.13,2868.93 c -2.97,0.22 -5.87,0.24 -8.71,0.05 13.43,-2.17 26.64,-6.58 38.77,-12.25 4.3,-2.01 8.47,-4.29 12.53,-6.75 1.43,-0.87 7.02,-5.49 8.92,-4.64 1.3,0.58 2,3.82 2.51,5.03 l 2.76,6.57 c 0.34,0.82 0.7,1.84 1.07,2.92 -19,4.51 -38.38,7.65 -57.85,9.07"
         style="fill:#0b101c;fill-opacity:1;fill-rule:nonzero;stroke:none"
         id="path30" />
      <path
         d="m 1611.99,2872.92 c 8.8,4.41 17.78,5.3 27.51,4.82 20.57,-1.02 40.97,-4.12 61.01,-8.87 4.25,12.49 8.49,24.98 12.74,37.47 -0.03,0.35 0.09,0.66 0.16,0.98 0.79,1.15 1.61,2.27 2.37,3.44 2.73,4.16 5.11,8.82 5.52,13.86 0.43,5.16 -1.31,10.24 -6.37,12.44 -2.29,0.99 -4.6,1.2 -7.03,0.71 -1.23,-0.25 -2.38,-0.76 -3.5,-1.34 -0.17,-0.02 -0.33,-0.01 -0.49,-0.03 -6.86,-0.81 -13.67,-2.17 -20.44,-3.51 -21.76,-4.31 -44.42,-9.99 -62.49,-23.51 -14.62,-10.94 -25.98,-27.93 -26.43,-46.42 5.94,3.06 11.46,6.95 17.44,9.96"
         style="fill:#0b101c;fill-opacity:1;fill-rule:nonzero;stroke:none"
         id="path32" />
      <path
         d="m 1857.47,2655.79 c 0,-0.01 0.01,-0.01 0.01,-0.02 0.02,-0.1 0.03,-0.21 0.05,-0.31 -0.03,0.11 -0.04,0.22 -0.06,0.33 z m 2211.05,-560.93 c -1.87,5.62 -7.57,8.12 -12.65,10.16 -5.3,2.14 -10.71,4.03 -16.11,5.9 -12.71,4.41 -25.6,8.27 -38.58,11.78 -50.63,13.7 -102.59,22.14 -154.17,31.35 -105.21,18.79 -210.61,36.53 -316.08,53.78 -105.4,17.25 -210.89,34.02 -316.36,50.86 -52.74,8.42 -105.48,16.9 -158.2,25.44 -26.36,4.28 -52.75,8.38 -79.06,12.91 -11.73,2.01 -33.94,11.92 -24.96,27.42 1.22,2.09 3.45,2.12 4.9,1.07 13.4,8.64 21.45,24.84 20.28,40.71 -0.18,2.43 1.75,5 4.31,5.07 28.22,0.85 52.65,30.59 46.46,58.62 -0.58,2.6 0.67,6.29 4.01,6.21 9.19,-0.24 17.69,2.55 25.25,7.73 13.84,9.49 23.37,24.63 30,39.77 9.42,21.55 15.05,44.47 17.61,67.82 0.26,2.35 3.01,4.08 5.25,3.57 15.18,-3.48 32.05,0.66 43.36,11.59 11.96,11.56 16.81,28.8 14.33,45.05 -0.24,1.58 0.93,2.6 2.24,2.84 0.7,0.7 1.62,1.21 2.92,1.24 10.8,0.25 18.49,10.75 24.5,18.51 7.61,9.82 13.94,20.58 18.96,31.93 4.43,10.01 7.78,20.45 9.98,31.18 2.05,9.99 1.77,21.1 6.09,30.49 4.73,10.28 14.81,12.66 24.36,16.68 8.36,3.52 16.22,8.1 23.52,13.48 29.19,21.49 48.9,56.49 50.27,92.92 0.14,3.82 3.17,5.86 6.77,4.61 6.82,-2.36 12.64,7.06 15.19,11.89 4.77,9.02 8.03,19.28 11.15,28.98 3.12,9.7 5.67,19.65 6.7,29.81 0.5,4.83 0.57,9.71 0.18,14.56 -0.39,4.92 -1.7,9.59 -2.41,14.44 -0.7,4.78 0.87,9.14 4.5,12.3 3.03,2.63 6.85,4.02 10.33,5.92 6.63,3.62 12.71,8.18 17.98,13.58 21.8,22.31 29.22,54.77 21.22,84.65 -0.28,1.06 -0.09,1.96 0.36,2.66 0.1,2.26 1.43,4.55 4.24,5.04 10.62,1.82 20.85,5.81 29.97,11.54 16.34,10.28 29.16,25.91 35.12,44.36 6.46,20 5.2,41.88 -3.31,61.05 -1.16,2.62 0.72,5.3 3.02,6.34 9.33,4.24 17.03,11.18 22.97,19.47 24.69,34.46 11.98,79.28 -5.74,113.66 -2.34,4.54 1.45,9 6.3,7.27 12.78,-4.54 30.49,-3.76 39.42,7.85 6.65,8.65 6.64,24.47 -3.72,30.34 -3.59,2.04 -3.74,7.74 0.53,9.17 11.84,3.97 23.57,8.55 34.25,15.1 9.22,5.64 17.52,12.66 23.77,21.54 6.64,9.41 10.42,20.51 12.23,31.81 3.84,23.86 -0.45,48.42 -4.85,71.9 -0.53,2.88 2.14,4.92 4.57,5.38 29.26,5.53 58.55,11.13 87.3,18.94 25.43,6.92 50.49,15.56 74.11,27.32 23.88,11.9 45.81,27.45 65.49,45.41 9.97,9.1 19.43,18.75 28.5,28.74 9.26,10.2 18.98,20.62 26.25,32.38 6.5,10.53 11.39,23.28 7.54,35.63 -3.04,9.75 -10.8,19.49 -21.83,19.66 -5.17,0.08 -5.98,7.91 -0.67,8.14 0.21,0 0.41,-0.04 0.62,-0.03 -0.5,1.76 -0.16,3.81 1.56,5.07 5.92,4.36 12.54,7.77 18.86,11.53 6.34,3.77 12.65,7.6 18.92,11.48 12.22,7.56 24.31,15.33 36.27,23.3 21.49,14.31 42.55,29.28 63.14,44.87 10.09,7.65 20.1,15.43 29.97,23.38 9.4,7.56 18.55,15.5 26.38,24.72 5.85,6.89 14.5,17.11 12.96,26.95 -0.82,5.25 -5.56,7.76 -9.91,9.9 -5.77,2.83 -11.7,5.35 -17.72,7.59 -22.17,8.24 -45.07,11.51 -68.46,12.51 -3.66,-0.67 -7.3,-1.36 -10.96,-1.99 -6.34,-1.09 -7.08,8.85 -0.82,9.93 27.12,4.66 54.02,10.45 80.64,17.4 47.49,12.38 94.05,28.3 139.18,47.59 22.43,9.58 44.51,19.98 66.15,31.22 10.66,5.55 21.7,10.91 31.76,17.5 6.79,4.45 16.48,11.88 16.38,20.96 -37.8,5.22 -75.96,7.06 -114.1,6.26 -70.8,-1.47 -140.9,-11.8 -210.52,-24.13 -25.59,-4.53 -51.12,-9.38 -76.63,-14.39 -37.25,-11.25 -74.64,-22.26 -112.38,-31.73 -2.21,-1 -4.43,-1.97 -6.62,-3.01 -2.12,-1.02 -3.59,2.29 -1.8,3.53 1.11,0.78 2.29,1.42 3.42,2.16 -0.01,1.05 0.55,2.07 1.91,2.53 1.54,0.51 3.07,1.04 4.6,1.57 28.53,16.72 61.92,24.15 94,30.9 4.84,1.01 9.69,2.01 14.53,3.02 7.27,2.28 14.55,4.53 21.8,6.83 39.99,12.68 79.89,25.73 119.4,39.83 39.37,14.04 78.37,29.13 116.73,45.74 38.18,16.52 75.72,34.55 112.21,54.54 18.25,9.99 36.24,20.47 53.91,31.46 8.86,5.51 17.63,11.14 26.32,16.91 4.27,2.85 8.58,5.66 12.76,8.65 2.4,1.71 4.86,3.66 6.53,6.11 -4.16,1.53 -8.36,2.93 -12.67,4.03 -24.03,6.13 -49.06,5.81 -73.56,3.31 -25.24,-2.59 -50.31,-7.15 -75.25,-11.73 -49.62,-9.13 -98.81,-20.43 -147.55,-33.45 -47.99,-12.83 -95.53,-27.29 -142.72,-42.81 -47.24,-15.54 -94.14,-32.14 -140.83,-49.27 -46.7,-17.14 -93.21,-34.8 -139.71,-52.46 -2.05,-0.77 -3.73,-0.15 -4.89,1.03 -0.67,-0.26 -1.33,-0.51 -1.99,-0.77 -6,-2.31 -9.3,7.08 -3.34,9.38 5.62,2.17 11.24,4.34 16.86,6.5 44.74,17.25 89.47,34.52 134.19,51.85 44.7,17.33 89.39,34.74 134.02,52.28 44.62,17.53 89.2,35.21 133.69,53.08 22.16,8.9 44.29,17.85 66.4,26.85 20.42,8.32 40.9,16.55 60.91,25.85 19.35,8.99 38.23,19.11 55.77,31.3 8.3,5.78 16.29,11.94 22.54,19.98 4.61,5.94 8.15,13.28 7.67,20.85 -4.27,-0.55 -8.53,-1.09 -12.79,-1.67 -46.75,-6.33 -93.27,-14.48 -139.38,-24.49 -46,-9.98 -91.61,-21.75 -136.7,-35.27 -45.26,-13.57 -90,-28.89 -134.07,-45.93 -43.92,-16.97 -87.09,-35.73 -129.64,-55.89 -40.77,-19.3 -80.44,-40.58 -120.34,-61.57 -2.95,-1.68 -5.87,-3.4 -8.82,-5.07 -5.55,-3.14 -11.19,5.07 -5.6,8.23 34.23,19.4 68.34,39.02 102.31,58.88 60.51,35.37 120.6,71.47 180.23,108.29 26.78,16.54 53.82,32.9 78.78,52.15 12.25,9.45 23.94,19.63 34.6,30.86 8.87,9.35 18.58,19.77 23.05,32.15 -2.48,-0.35 -4.98,-0.63 -7.46,-1.03 -38.93,-6.3 -76.37,-19.67 -112.9,-34.17 -36.74,-14.58 -72.79,-30.88 -108.2,-48.43 -35.58,-17.63 -70.51,-36.55 -104.98,-56.25 -34.43,-19.69 -68.31,-40.28 -102.34,-60.63 -34.05,-20.35 -68.08,-40.76 -101.92,-61.46 -2.41,-1.47 -4.85,2.07 -2.48,3.64 4.15,2.73 8.31,5.46 12.43,8.24 33.2,22.32 66.64,44.31 100.46,65.69 6.68,4.22 13.42,8.37 20.16,12.52 -0.86,1.54 -0.8,3.44 0.99,5.03 9.62,8.54 18.3,19.1 22.88,31.25 5.42,14.36 -0.01,30.04 -18.25,27.88 -9.99,-1.18 -19.05,-6.56 -27.64,-11.43 -8.14,-4.61 -16.21,-9.35 -24.21,-14.2 -32.44,-19.68 -63.71,-41.24 -94.32,-63.65 -62.29,-45.62 -122.19,-94.4 -184.11,-140.51 -124.93,-93.03 -254.9,-178.39 -388.24,-258.82 -58.49,-35.28 -117.12,-71.25 -169.12,-115.82 -25.71,-22.03 -49.61,-46.3 -70.3,-73.13 -23.17,-30.04 -41.21,-63.33 -56.16,-98.12 -15.55,-36.17 -28.05,-73.53 -41.47,-110.52 -13.71,-37.8 -28.12,-75.36 -43.19,-112.64 -30.35,-75.08 -63.52,-149.02 -99.31,-221.67 -44.15,-89.61 -102.9,-191.52 -199.22,-230.04 0.55,2.66 0.56,5.48 -0.22,8.48 -0.83,3.16 -5.03,4.12 -7.5,2.45 -11.9,-8.05 -23.93,-16.17 -37.09,-22.06 -3.7,-1.65 -7.5,-3.09 -11.38,-4.29 -27.02,-2.96 -54.54,0.01 -80.97,6.15 -30.47,7.07 -59.79,18.26 -89.07,29.1 -30.11,11.16 -60.37,21.39 -91.82,28.11 -30.63,6.54 -62.7,11.38 -94.08,9.57 -22.85,-1.33 -44.5,-7.27 -64.16,-18.29 -2.65,1.03 -6.25,-0.12 -6.96,-3.56 -3.22,-15.52 -6.74,-30.97 -10.57,-46.34 -2.02,-5.9 -4.06,-11.79 -6.08,-17.69 -2.35,-5.3 -4.7,-10.6 -6.94,-15.95 -1.77,-4.25 -3.48,-8.53 -5,-12.88 -0.66,-1.88 -1.27,-3.77 -1.57,-5.66 -0.21,-0.18 -0.42,-0.38 -0.63,-0.55 0.17,-0.14 0.32,-0.3 0.49,-0.44 -0.21,-2.17 0.07,-4.34 1.28,-6.48 1.89,-3.34 5.36,-5.65 8.15,-8.18 3.3,-2.99 6.5,-6.1 9.59,-9.3 5.66,-5.86 10.96,-12.05 16.04,-18.41 10.36,-12.94 19.81,-26.56 29.53,-39.97 5.47,-7.56 11.11,-15.01 17.07,-22.19 4.51,-5.44 9.08,-10.73 14.3,-15.39 0.18,-0.58 0.5,-1.16 1.1,-1.69 22.46,-19.7 49.63,-41.33 52.23,-73.45 0.48,-5.98 8.31,-5.66 9.89,-0.53 1.06,3.42 1.23,6.84 0.84,10.21 0.57,-3.38 1.72,-6.74 2.77,-9.99 2,-6.14 3.83,-12.24 4.28,-18.71 0.69,-10.04 -1.23,-19.97 -3.59,-29.72 -40.01,-30.24 -89,-46.92 -136.89,-60.07 -65.61,-18.01 -131.99,-33.47 -197.97,-50.04 -68.84,-17.28 -137.68,-34.56 -206.52,-51.84 -59.62,-14.96 -119.33,-29.72 -178.2,-47.5 -57.46,-17.35 -114.22,-37.6 -168.291,-63.81 -55.429,-26.88 -106.379,-60.61 -153.164,-100.65 -49.808,-42.62 -96.336,-88.79 -149.492,-127.41 -53.117,-38.6 -110.09,-71.46 -167.262,-103.58 -13.941,-7.84 -27.996,-15.49 -41.843,-23.47 -12.739,-7.35 -26.02,-16.17 -34.387,-28.56 -8.02,-11.88 -8.512,-26.86 1.82,-37.56 10.02,-10.38 24.758,-13.32 38.641,-12.04 16.148,1.5 31.89,7.59 46.926,13.37 13.972,5.37 27.648,11.48 41.035,18.19 27.734,13.91 53.789,30.93 78.812,49.21 3.688,2.69 7.121,-2.86 3.887,-5.71 -8.649,-7.61 -17.609,-14.66 -26.93,-21.31 -42.121,-35.7 -82.941,-72.81 -121.144,-112.73 -20.125,-21.02 -39.645,-42.62 -58.422,-64.86 -18.946,-22.44 -37.824,-45.28 -53.66,-70.07 -15.43,-24.16 -28.258,-50.57 -32.625,-79.13 -1.09,-7.14 -1.746,-14.41 -1.547,-21.63 0.082,-3.03 0.613,-3.14 3.703,-2.7 2.902,0.43 5.793,1.33 8.613,2.12 11.856,3.29 23.399,7.66 34.528,12.9 45.476,21.41 82.988,56.67 117.812,92.18 19.887,20.28 39.613,40.78 58.688,61.83 10.07,11.12 19.902,22.45 29.289,34.14 9.371,11.68 17.816,24.03 27.128,35.74 3,3.77 9.266,-0.46 6.997,-4.65 -3.661,-6.75 -7.836,-12.95 -12.372,-19.14 -18.3,-25.01 -38.976,-48.15 -60.187,-70.7 -10.188,-10.83 -20.422,-21.63 -30.77,-32.33 -8.82,-11.02 -17.531,-22.15 -26.187,-33.29 -11.141,-14.33 -21.977,-28.91 -32.441,-43.74 -37.04,-52.48 -70.395,-107.51 -99.024,-165.04 -14.308,-28.75 -27.437,-58.1 -39.332,-87.94 -9.215,-23.12 -22.07,-52.93 -9.555,-77.2 6.95,-3.45 14.618,-0.45 21.008,3.4 7.778,4.7 14.703,10.9 21.684,16.67 14.754,12.22 29.137,24.88 43.152,37.94 50.34,46.91 95.985,98.66 138.41,152.77 42.571,54.31 81.961,111.03 120.114,168.5 1.5,2.26 4.003,3.6 6.695,2.28 2.199,-1.07 3.777,-4.44 2.281,-6.69 -4.543,-6.84 -9.098,-13.68 -13.676,-20.5 -37.855,-56.41 -77.113,-111.96 -119.621,-164.97 -0.176,-0.22 -0.351,-0.43 -0.523,-0.65 -3.61,-4.97 -7.227,-9.94 -10.797,-14.94 -20.305,-28.44 -40.027,-57.12 -58.113,-87.04 -18.032,-29.83 -34.582,-60.57 -49.52,-92.07 -14.933,-31.5 -28.262,-63.78 -39.914,-96.63 -5.805,-16.38 -11.168,-32.9 -16.09,-49.56 -2.461,-8.33 -4.988,-16.68 -7.066,-25.12 -0.625,-2.54 -1.457,-5.59 0.996,-7.34 1.922,-1.38 4.754,-1.57 7.027,-1.56 7,0.04 14.168,2.54 20.766,4.65 7.527,2.4 14.894,5.3 22.043,8.67 14.246,6.71 27.578,15.48 39.508,25.76 13.453,11.57 25.086,25.17 36.656,38.58 11.484,13.31 22.766,26.8 33.832,40.46 44.234,54.63 85.074,112 122.164,171.7 37.113,59.76 70.492,121.81 99.922,185.7 2.695,5.85 11.672,1.43 8.98,-4.41 -3.679,-7.99 -7.418,-15.95 -11.218,-23.87 -28.164,-58.75 -59.762,-115.84 -94.496,-170.96 -2.407,-4.31 -4.754,-8.64 -7.157,-12.96 -26.836,-48.21 -50.082,-98.48 -67.875,-150.73 -8.629,-25.33 -16.824,-51.38 -21.886,-77.69 -2.274,-11.8 -3.481,-24.34 -0.157,-36.07 2.657,-9.37 9.774,-20.87 20.692,-21.35 5.683,-0.25 11.027,3.06 15.656,5.98 5.133,3.23 9.996,6.94 14.523,10.98 9.172,8.19 17.188,17.62 24.911,27.15 16.863,20.82 33.031,42.22 48.601,64.02 31.402,43.97 60.18,89.81 86.199,137.17 25.981,47.29 48.692,96.09 69.465,145.87 1.418,3.4 4.887,3.31 7.145,1.55 1.531,-0.05 3.125,-1.66 2.449,-3.59 -0.262,-0.76 -0.492,-1.54 -0.754,-2.3 v 0 c -0.004,-0.01 -0.004,-0.01 -0.008,-0.01 -6.445,-18.86 -11.644,-38.27 -16.5,-57.58 -5.039,-20.04 -9.086,-40.36 -12.121,-60.79 -2.68,-18.04 -4.621,-36.21 -5.707,-54.41 -0.879,-14.72 -2.316,-30.62 1.293,-45.1 3.246,-13.02 11.332,-23.58 25.34,-25.4 15.152,-1.96 30.637,5.54 43.656,12.37 56.242,29.54 105.469,71.66 143.477,122.54 3.64,4.88 10.1,-0.59 8.25,-5.48 -1.57,-4.15 0.49,-8.79 3.33,-11.86 3.54,-3.83 8.39,-5.66 13.56,-5.72 10.2,-0.11 20.14,4.8 28.92,9.54 9.07,4.9 17.67,10.66 25.67,17.16 15.59,12.66 28.76,28.34 38.61,45.83 3.15,5.59 12.14,1.21 8.98,-4.41 -0.32,-0.56 -0.67,-1.09 -0.99,-1.65 -0.16,-10.48 4.25,-19.99 10.21,-28.67 6.86,-10 16.13,-19.48 27.12,-24.86 4.71,-2.31 9.88,-3.79 15.16,-3.4 5.61,0.4 10.6,2.9 15.21,5.98 9.34,6.23 18.05,13.68 26.29,21.28 16.76,15.47 31.73,32.88 44.59,51.72 25.43,37.26 42.23,80.35 48.64,124.99 0.49,3.44 4.25,4.68 7.11,3.56 8.27,-3.26 17.03,-5.12 25.89,-5.78 31.28,-2.35 63.44,11.73 82.34,36.81 1.67,2.22 5.06,2.09 7.04,0.49 9.18,-7.42 20.12,-12.08 31.67,-14.3 44.87,-8.65 85.55,17.4 121.37,40.79 5.44,3.56 10.57,-4.27 5.61,-8.23 0.28,0.22 0.2,0.37 0.23,-0.15 0.05,-0.79 0.66,-1.64 1.08,-2.29 1.18,-1.84 2.98,-3.14 4.75,-4.36 3.79,-2.6 8.12,-4.65 12.49,-6.03 35.2,-11.14 67.56,12.91 88.6,38.8 3.35,4.12 8.96,0.35 8.55,-3.89 9.93,-2.98 20.39,-4.41 30.72,-4.34 40.48,0.27 80.59,23.82 97.24,61.26 1.1,2.47 4.31,3.42 6.65,2.27 9.49,-4.62 19.59,-7.5 30.07,-8.74 36.5,-4.29 76.14,12.35 96.29,43.57 1.83,2.83 4.93,3.64 7.73,1.56 12.96,-9.6 29.2,-12.54 45,-10.75 14.77,1.67 29.07,7.25 41.54,15.24 6.43,4.12 11.92,9.13 17.76,13.99 6.74,5.6 14.12,7.57 22.75,5.83 7.57,-1.53 14.37,-3.63 22.2,-2.9 6.87,0.63 13.69,2.75 19.71,6.11 12.24,6.8 21.92,18.06 25.1,31.86 0.6,2.58 3.11,4.53 5.82,3.96 16.51,-3.46 34.14,2.63 44.78,15.79 2.91,3.6 5.47,7.57 9.44,10.14 3.91,2.54 8.57,3.28 13.15,3.26 9.12,-0.04 17.7,-0.14 26.55,2.51 7.98,2.38 15.27,6.2 21.87,11.24 6.72,5.14 13.08,10.94 21.39,13.38 7.98,2.33 16.5,1.88 24.35,4.7 6.05,2.17 11.4,5.82 16.29,9.93 10.42,8.76 18.78,19.69 29,28.68 5.02,4.41 10.38,8.24 16.4,11.17 6.58,3.2 13.76,4.85 20.44,7.78 7.21,3.17 10.64,8.21 14.53,14.76 4.15,6.99 9.08,12.03 17.29,13.72 7.51,1.54 14.66,2.06 21.83,5.06 6.66,2.79 12.91,6.92 18.1,11.94 10.69,10.34 17.4,24.28 17.82,39.25 0.43,15.05 -4.66,30.41 -14.81,41.66 -1.8,2 -2.46,4.84 -0.49,7.06 1.64,1.84 5.24,2.5 7.06,0.48 1.28,-1.42 2.47,-2.92 3.63,-4.43 0.64,-0.17 1.26,-0.47 1.77,-1.09 6.13,-7.35 12.19,-14.76 17.98,-22.37 46.27,-60.8 82,-129.77 111.42,-200.08 31.29,-74.76 54.98,-152.47 74.67,-231.01 20.63,-82.27 37.01,-165.53 53.44,-248.71 17.1,-86.54 33.85,-173.14 50.24,-259.82 3.33,-17.59 6.01,-35.48 11.8,-52.48 4.63,-13.61 11.48,-27.679 23.62,-36.109 8.75,-6.089 19.22,-7.75 29.82,-7.371 0.38,0.739 1.02,1.328 1.95,1.551 7.62,1.828 15.27,2.57 23.01,3.777 6.59,1.032 13.11,2.43 19.56,4.153 11.16,3.937 21.94,8.91 32.07,15.049 1.7,1.03 3.38,0.88 4.78,0.18 11.23,6.77 21.28,15.36 29.21,26.15 14.29,19.45 21.16,45.35 13.21,68.71 -1.6,4.68 3.94,8.1 7.65,5.21 11,-8.6 26.31,-9.83 39.37,-5.78 23.45,7.27 41.48,29.06 51.83,50.49 10.32,21.39 13.9,46.49 3.92,68.67 -1.44,3.2 2,7.02 5.31,6.2 14.97,-3.72 30.62,-2.41 44.95,3.2 12.27,4.8 23.32,12.75 31.53,23.08 8.56,10.75 13.44,23.98 15.07,37.54 1.68,13.9 -0.21,28.02 -4.25,41.36 -4.23,13.92 -10.99,26.19 -18.7,38.44 -0.74,1.18 -0.42,2.52 0.34,3.46 -1.65,4.69 5.4,8.92 8.88,4.24 8.39,-11.29 20.77,-19.4 34.45,-22.64 11.04,-2.61 24.54,-2.87 34.25,3.85 10.72,7.43 10.59,23.25 11.94,34.94 2.78,24.22 4.19,50.92 -9.04,72.55 -3.36,5.5 4.31,10.68 8.23,5.61 9.73,-12.61 25.91,-20.59 41.89,-20.4 15.89,0.19 29.24,8.74 36.29,23.01 8.1,16.38 6.91,35.25 1.94,52.36 -5.44,18.79 -14.18,36.87 -23.3,54.11 -9.45,17.89 -20.16,35.09 -31.95,51.54 -2.38,3.32 0.83,8.9 5.05,7.69 14.48,-4.15 26.86,-12.36 38.93,-21.14 18.53,-13.48 42.81,-32.53 67.33,-23.91 2.64,0.93 5.48,2.22 6.7,4.91 1.24,2.75 0.85,6.36 0.77,9.3 -0.15,6.4 -0.75,12.79 -1.78,19.12 -2.09,12.87 -6.18,25.35 -11.77,37.12 -2.08,4.38 4.67,9.08 7.97,5.42 6.06,-6.72 14.5,-10.21 23.54,-10.15 16.98,0.12 32.67,10.55 37.02,27.35 4.75,18.34 -2.59,38.46 -16.51,50.89 -3.01,2.69 -1.57,8.69 2.87,8.72 17.32,0.12 34.13,-3.74 51.07,-6.85 22.95,-4.2 49.24,-6.18 68.8,9.2 22.3,17.55 12.78,47.28 0.25,67.68 -2.08,3.4 0.62,8.9 5.05,7.7 12.73,-3.47 25.9,-4.15 38.92,-1.94 11,1.86 22.34,5.86 31.54,12.26 10.51,7.3 12.6,18.66 11.53,30.77 -2.02,22.62 -10.99,44.33 -24.72,62.33 -3.37,4.42 2.11,8.69 6.31,7.27 13.91,-4.69 28.81,-6.36 43.43,-5.3 25.32,1.83 51.89,12.04 69.94,30.33 8.34,8.45 15.85,22.3 7.72,33.51 -3.69,5.1 -10.06,6.29 -15.72,8.01 -3.33,1.01 -6.5,2.47 -9.29,4.45 -0.28,0.03 -0.57,0.04 -0.85,0.07 -2.87,0.21 -3.99,2.3 -3.88,4.49 -0.09,0.13 -0.21,0.22 -0.3,0.35 -2.35,3.37 1.73,6.43 4.7,4.82 0.43,0.07 0.85,0.2 1.34,0.16 10.33,-0.78 20.67,-1.49 31.02,-2.07 82.09,-4.53 171.05,-1.81 243.77,41.2 8.72,5.16 17.9,10.55 24.89,17.99 5.49,5.83 12.41,15.13 9.57,23.68"
         style="fill:#0b101c;fill-opacity:1;fill-rule:nonzero;stroke:none"
         id="path34" />
    </g>
  </g>
</svg>
